#define desk_width 6
#define desk_height 6
static unsigned char desk_bits[] = {
   0x00, 0x09, 0x0f, 0x0f, 0x0f, 0x09 };
