#define desk_width 6
#define desk_height 6
static unsigned char desk_bits[] = {
   0x00, 0x24, 0x3c, 0x3f, 0x3c, 0x24 };
