#define max7_width 6
#define max7_height 6
static unsigned char max7_bits[] = {
   0x3f, 0x21, 0x21, 0x21  0x21, 0x3f };
